<?xml version="1.0" encoding="utf-8"?>
<!-- Generator: Adobe Illustrator 24.2.0, SVG Export Plug-In . SVG Version: 6.00 Build 0)  -->
<svg version="1.1" id="Layer_1" xmlns="http://www.w3.org/2000/svg" xmlns:xlink="http://www.w3.org/1999/xlink" x="0px" y="0px"
	 viewBox="0 0 29 33" style="enable-background:new 0 0 29 33;" xml:space="preserve">
<style type="text/css">
	.st0{fill:#FFFFFF;}
</style>
<path class="st0" d="M5.5,0.4L5.5,0.4c3,0,5.5,2.5,5.5,5.5v21.2c0,3-2.5,5.5-5.5,5.5h0c-3,0-5.5-2.5-5.5-5.5V5.9
	C0,2.9,2.5,0.4,5.5,0.4z"/>
<path class="st0" d="M23.5,0.4L23.5,0.4c3,0,5.5,2.5,5.5,5.5v21.2c0,3-2.5,5.5-5.5,5.5h0c-3,0-5.5-2.5-5.5-5.5V5.9
	C18,2.9,20.5,0.4,23.5,0.4z"/>
</svg>
