<?xml version="1.0" encoding="UTF-8"?>
<svg width="34px" height="24px" viewBox="0 0 34 24" version="1.1" xmlns="http://www.w3.org/2000/svg" xmlns:xlink="http://www.w3.org/1999/xlink">
    <title>playlist-icon</title>
    <g id="Page-1" stroke="none" stroke-width="1" fill="none" fill-rule="evenodd">
        <g id="playlist-icon" fill="#C7C5D0" fill-rule="nonzero">
            <path d="M18.5908364,7.00000364 L1.77264,7.00000364 C0.847638545,7.00000364 0.0908203636,7.75682182 0.0908203636,8.68181455 C0.0908203636,9.60681818 0.847638545,10.3636364 1.77264,10.3636364 L18.5908364,10.3636364 C19.5158182,10.3636364 20.2726909,9.60681818 20.2726909,8.68181455 C20.2726909,7.75682182 19.5158182,7.00000364 18.5908364,7.00000364 Z M18.5908364,0.272727273 L1.77264,0.272727273 C0.847638545,0.272727273 0.0908203636,1.02954545 0.0908203636,1.95454909 C0.0908203636,2.87954182 0.847638545,3.63636 1.77264,3.63636 L18.5908364,3.63636 C19.5158182,3.63636 20.2726909,2.87954182 20.2726909,1.95454909 C20.2726909,1.02954545 19.5158182,0.272727273 18.5908364,0.272727273 Z M26.9998909,13.7272364 L26.9998909,8.68181455 C26.9998909,7.75682182 26.2431273,7.00000364 25.3181455,7.00000364 C24.3930545,7.00000364 23.6362909,7.75682182 23.6362909,8.68181455 L23.6362909,13.7272364 L18.5908364,13.7272364 C17.6658545,13.7272364 16.9089818,14.4841091 16.9089818,15.4090909 C16.9089818,16.3340727 17.6658545,17.0909455 18.5908364,17.0909455 L23.6362909,17.0909455 L23.6362909,22.1364 C23.6362909,23.0613818 24.3930545,23.8181455 25.3181455,23.8181455 C26.2431273,23.8181455 26.9998909,23.0613818 26.9998909,22.1364 L26.9998909,17.0909455 L32.0453455,17.0909455 C32.9703273,17.0909455 33.7272,16.3340727 33.7272,15.4090909 C33.7272,14.4841091 32.9703273,13.7272364 32.0453455,13.7272364 L26.9998909,13.7272364 Z M1.77264,17.0909455 L11.8635273,17.0909455 C12.7885091,17.0909455 13.5453818,16.3340727 13.5453818,15.4090909 C13.5453818,14.4841091 12.7885091,13.7272364 11.8635273,13.7272364 L1.77264,13.7272364 C0.847638545,13.7272364 0.0908203636,14.4841091 0.0908203636,15.4090909 C0.0908203636,16.3340727 0.847638545,17.0909455 1.77264,17.0909455 Z" id="Shape"></path>
        </g>
    </g>
</svg>