<?xml version="1.0" encoding="UTF-8"?>
<svg width="23px" height="24px" viewBox="0 0 23 24" version="1.1" xmlns="http://www.w3.org/2000/svg" xmlns:xlink="http://www.w3.org/1999/xlink">
    <title>social-share-icon</title>
    <g id="Page-1" stroke="none" stroke-width="1" fill="none" fill-rule="evenodd">
        <g id="social-share-icon" fill="#C7C5D0" fill-rule="nonzero">
            <path d="M18.4798824,14.88 C20.87028,14.88 22.79988,16.8096 22.79988,19.2 C22.79988,21.5904 20.87028,23.52 18.4798824,23.52 C16.08948,23.52 14.15988,21.5904 14.15988,19.2 C14.15988,18.8544 14.20308,18.5376 14.28948,18.2064 L7.98228,14.8944 C7.19028,15.7728 6.06708,16.32 4.79988,16.32 C2.40948,16.32 0.4798824,14.3904 0.4798824,12 C0.4798824,9.609624 2.40948,7.680024 4.79988,7.680024 C6.06708,7.680024 7.19028,8.241624 7.98228,9.105624 L14.28948,5.793624 C14.20308,5.462424 14.15988,5.145624 14.15988,4.800024 C14.15988,2.409624 16.08948,0.4800288 18.4798824,0.4800288 C20.87028,0.4800288 22.79988,2.409624 22.79988,4.800024 C22.79988,7.190424 20.87028,9.120024 18.4798824,9.120024 C17.21268,9.120024 16.08948,8.558424 15.29748,7.694424 L8.99028,11.006424 C9.164688,11.657352 9.164688,12.34272 8.99028,12.9936 L15.29748,16.3056 C16.08948,15.4272 17.21268,14.88 18.4798824,14.88 Z" id="Path"></path>
        </g>
    </g>
</svg>